<svg version="1.1" id="Layer_1" xmlns="http://www.w3.org/2000/svg" xmlns:xlink="http://www.w3.org/1999/xlink" x="0px" y="0px"
	 width="100%" viewBox="0 0 154 154" enable-background="new 0 0 154 154" xml:space="preserve">
<path fill="#fcd436" opacity="1.000000" stroke="none" 
	d="
M91.259811,18.760120 
	C101.013763,28.852602 110.474648,38.732380 120.035378,48.514561 
	C123.139679,51.690762 122.635803,54.254734 119.618294,57.175304 
	C116.205307,60.478642 113.210022,64.209381 109.872665,67.596176 
	C106.444664,71.074959 103.534805,71.020760 100.074318,67.598114 
	C92.921013,60.523056 85.806725,53.408546 78.328918,45.964355 
	C71.665543,52.698811 65.013016,59.457813 58.319611,66.176094 
	C52.769638,71.746696 51.215878,71.769791 45.830189,66.310677 
	C42.809097,63.248402 39.973484,60.001396 36.917889,56.975368 
	C33.554424,53.644447 34.518364,50.865311 37.512867,47.933228 
	C44.179676,41.405384 50.802055,34.829018 57.314541,28.147663 
	C63.024284,22.289869 68.604713,16.303696 74.153732,10.292504 
	C77.183281,7.010625 79.933571,7.116184 82.914978,10.344270 
	C85.513016,13.157277 88.301315,15.794568 91.259811,18.760120 
z"/>
<path fill="#fcd436" opacity="1.000000" stroke="none" 
	d="
M69.838486,104.981476 
	C72.109428,108.208298 74.380363,111.435127 76.755280,114.809685 
	C85.839661,105.690933 92.984985,98.487724 100.167831,91.322136 
	C103.540863,87.957199 106.458000,87.980400 109.863388,91.349068 
	C112.938011,94.390549 115.969444,97.475708 119.017136,100.544380 
	C122.943810,104.498100 123.025513,107.355225 119.080490,111.363068 
	C111.797203,118.762367 104.375893,126.026207 97.120010,133.451920 
	C92.156792,138.531342 87.358543,143.772797 82.521454,148.974274 
	C79.837204,151.860748 77.141083,152.003510 74.551651,148.994354 
	C71.381371,145.310226 68.614349,141.240570 65.190384,137.820786 
	C56.388069,129.029205 47.468887,120.340775 38.288567,111.947845 
	C34.220802,108.228981 33.463871,104.202400 38.450665,100.010010 
	C41.242493,97.662933 43.707115,94.925545 46.308292,92.353020 
	C51.264137,87.451782 52.980526,87.471962 58.017380,92.513512 
	C58.603073,93.099762 59.189953,93.684837 59.996758,94.884918 
	C60.841434,95.988289 61.465641,96.477196 62.089848,96.966095 
	C62.089848,96.966095 62.025375,96.981186 62.058701,97.296997 
	C62.883022,98.127487 63.674015,98.642166 64.465012,99.156845 
	C64.465012,99.156837 64.729973,99.222145 64.790794,99.622314 
	C65.266106,100.336205 65.680595,100.649925 66.095085,100.963654 
	C66.095085,100.963646 66.027931,100.969666 66.075523,101.278152 
	C67.361572,102.718246 68.600029,103.849861 69.838486,104.981476 
z"/>
<path fill="#fcd436" opacity="1.000000" stroke="none" 
	d="
M114.604843,76.876335 
	C118.714920,72.427559 122.529228,68.244553 126.404457,64.118782 
	C129.264481,61.073845 132.284012,60.854042 135.334717,63.879765 
	C138.989655,67.504791 142.781937,71.007027 146.233505,74.817200 
	C149.959366,78.930168 150.003296,81.144241 146.305740,84.303246 
	C142.404572,87.636215 138.968536,91.514343 135.337051,95.162018 
	C132.682816,97.828094 129.733658,98.026253 127.076775,95.507126 
	C122.942993,91.587692 118.865395,87.559235 115.241570,83.181633 
	C114.133858,81.843521 114.593399,79.208015 114.604843,76.876335 
z"/>
<path fill="#fcd436" opacity="1.000000" stroke="none" 
	d="
M21.420076,94.854736 
	C17.184282,90.430382 13.063288,86.393143 9.387699,81.984550 
	C8.531988,80.958191 8.451976,78.042412 9.278708,77.066620 
	C13.309789,72.308746 17.470528,67.552902 22.248728,63.597706 
	C23.801205,62.312634 28.161415,62.409496 29.852112,63.695499 
	C34.142658,66.959030 37.808201,71.112503 41.414539,75.183754 
	C43.893909,77.982758 43.705624,81.386642 41.246174,84.118393 
	C37.763603,87.986542 33.979088,91.589493 30.230291,95.209129 
	C27.425114,97.917641 24.506990,98.008072 21.420076,94.854736 
z"/>
<path fill="#fcd436" opacity="1.000000" stroke="none" 
	d="
M64.715912,73.803238 
	C68.269363,70.251251 71.548874,66.938538 74.845116,63.642548 
	C77.264336,61.223518 79.698776,61.191837 82.138443,63.638592 
	C86.252121,67.764229 90.633545,71.666000 94.339188,76.129478 
	C95.470192,77.491791 95.732513,81.195679 94.708115,82.436958 
	C90.956482,86.982841 86.451378,90.900337 82.317871,95.140129 
	C79.949745,97.569153 77.500107,98.079681 75.065254,95.544678 
	C70.601692,90.897514 66.163597,86.213402 61.958267,81.334900 
	C58.925446,77.816597 62.736137,76.189812 64.715912,73.803238 
z"/>
<path fill="#fcd436" opacity="1.000000" stroke="none" 
	d="
M69.824936,104.662422 
	C68.600029,103.849861 67.361572,102.718246 66.083672,101.245438 
	C67.299942,102.050613 68.555664,103.196991 69.824936,104.662422 
z"/>
<path fill="#fcd436" opacity="1.000000" stroke="none" 
	d="
M64.294052,98.933426 
	C63.674015,98.642166 62.883022,98.127487 62.064796,97.264450 
	C62.732742,97.514069 63.427917,98.112038 64.294052,98.933426 
z"/>
<path fill="#fcd436" opacity="1.000000" stroke="none" 
	d="
M61.984627,96.682953 
	C61.465641,96.477196 60.841434,95.988289 60.136375,95.194168 
	C60.663483,95.392570 61.271446,95.896194 61.984627,96.682953 
z"/>
<path fill="#fcd436" opacity="1.000000" stroke="none" 
	d="
M66.029007,100.718361 
	C65.680595,100.649925 65.266106,100.336205 64.835617,99.751183 
	C65.200722,99.810944 65.581825,100.142006 66.029007,100.718361 
z"/>
</svg>